<?xml version="1.0" encoding="utf-8"?>
<!-- Svg Vector Icons : http://www.onlinewebfonts.com/icon -->
<!DOCTYPE svg PUBLIC "-//W3C//DTD SVG 1.1//EN" "http://www.w3.org/Graphics/SVG/1.1/DTD/svg11.dtd">
<svg version="1.1" xmlns="http://www.w3.org/2000/svg" xmlns:xlink="http://www.w3.org/1999/xlink" x="0px" y="0px" viewBox="0 0 1000 1000" enable-background="new 0 0 1000 1000" xml:space="preserve">
<metadata> Svg Vector Icons : http://www.onlinewebfonts.com/icon </metadata>
<g><path d="M759.1,512.1c-7.8,3.3-9.1,10.8-11.7,17.4c-16,40.9-41.2,75-75.3,102.7c-3.1,2.5-9.3,3.4-7.3,10.1c82.4,10.9,150.5-19,208.3-74.8c45.2-43.7,72.5-101.5,116.8-151.1c-27.1-0.1-48.9,6.1-70.3,14.5C863.6,452.8,814.5,488.8,759.1,512.1z"/><path d="M751.9,649.1c-29.3,7.1-58.9,7.3-88.7,2.7c-12.7-2-24.3-0.2-36.7,4.6c-25.3,9.8-51.3,17.3-79.2,15.2c-4.2-0.4-9.9-3-12.4,2.5c-2.2,4.8,1.9,8.9,4.3,12.4c21,30.3,50.2,47.3,85.8,55.9c68.6,16.6,141.3,9,208.2,37c-0.2-43.3-32.4-105.7-64.7-128.1C763.1,647.6,757.9,647.7,751.9,649.1z"/><path d="M565.1,660.4c66.6-8.5,120-39.5,154.5-98.6c37.7-64.7,43.5-135.9,39.9-214.2c-38.7,37.5-84.7,50.9-128.7,68.5c-18.4,7.4-36.3,15.8-54.2,24.3c-70.3,33.4-91.4,108.3-74.7,176.3C510.9,653.4,527.4,665.3,565.1,660.4z"/><path d="M424.3,323.7c19,12.2,35.1,28.1,49.8,45c8.4,9.7,17.3,12.5,29.5,10.8c31.7-4.4,63.2-4.1,94,6c4.8,1.6,9.7,3.7,14.5,0.2c-0.1-10.5,4.8-20,11.3-26.5c26.4-27,18.3-54.5,3.6-82.7c-3.3-6.4-6.7-12.9-9.6-19.6c-15.5-35.6-39.3-66.2-59.8-99.6c-26.1,22.7-55.8,41.5-80.5,66.3c-22.9,22.9-45.3,46.3-58.5,76.7C414.4,309.7,414,317,424.3,323.7z"/><path d="M486.3,641.9c8.2,0.4,12.3,0.5,8.8-10.4c-19.3-59.4-12.4-114.9,28.1-164c6.8-8.3,6.7-14.1,0.7-22.4c-31.7-43.4-65.2-85.7-110.4-115.5c-58.9-38.9-122.2-71-176.8-116.6c-0.3-0.3-1.2,0.1-4.1,0.3c-2.1,42.4-0.9,83.9,7.2,125c18.1,92.4,50.9,178.1,119.8,245.5C394.5,617.9,436.3,639.5,486.3,641.9z"/><path d="M480.8,651.6c-16.8-2.6-33-5.1-48.7-10.6c-50-17.7-86.9-51.6-117.8-93.2c-5.5-7.4-10.4-14.7-21.1-16.3c-21.5-3.3-42.9-8-64.9-6.6c-72.5,4.7-145,9.1-218.4-22.4c55.7,80,127.8,124.7,215.2,148.1C311.2,673.7,443.7,675.4,480.8,651.6z"/><path d="M528.7,429.7c8.2,22.2,8.2,22.2,35.5,3.4C550.5,431.1,540,428.2,528.7,429.7z"/><path d="M297.5,524.3c-9.3-18.4-16.5-31.7-22.9-45.4c-6.7-14.4-14.2-28.6-18.6-43.7c-9.3-31.7-17.7-41.4-59.7-42c-30.9-0.4-58.5-8.4-85.3-22.3c-7.6-4-15-9.8-26.9-9.6c19.5,31.2,30,64.5,49.9,92.6c22.7,32.2,49.4,59.4,92.8,59.2C249.3,512.9,271.6,513.2,297.5,524.3z"/><path d="M524.5,386.1c-8.8,0.5-24.1-2.3-24.5,5.4c-0.6,10.8,10.8,19.9,21.5,25.8c1.7,0.9,3.8,1.1,5.8,1.4c31.6,5.1,62.9,7.7,94.9-12.2C590.1,388.8,558,384.1,524.5,386.1z"/><path d="M651.1,398c28.4-11.1,56.4-22.6,82-39.4c10.5-6.9,21.3-13.7,25.8-26.4c1.3-3.7,1.9-8.6,7.1-7.5c4.8,1,4.4,5.7,4.4,9.8c0.6,50.2,3.8,100.5-10,149.8c-1.3,4.6-4.5,9.8-0.2,15.4c55.3-24.6,89.1-64.8,99-126.1c7.7-47.2,2.6-96.3,23.6-144.6c-19.4,5-35.9,9.2-52.3,13.5c-85.8,22.3-159.8,62.4-210.8,137.9c-1.5,2.3-4.5,3.6-7,5.3C622.1,400.5,633.6,404.7,651.1,398z"/><path d="M497,658.2c-62,24-126.7,25.8-191.6,19.9c-20.5-1.8-35.6,2.9-50.2,16.1c-42.9,38.5-61.4,89.3-75.6,148.5c40.4-24.7,82-28.6,123.4-34.1c30.8-4.1,61.9-8,90.9-19.7c55.9-22.5,98.5-58.4,114.9-119.4C511.9,657.9,510.7,652.9,497,658.2z"/><path d="M612.8,385.6c0-0.1-0.1-0.1-0.1-0.2c-0.2,0.1-0.4,0.1-0.5,0.3c0,0.1,0,0.2,0,0.3C612.4,385.9,612.6,385.8,612.8,385.6z"/></g>
</svg>