<?xml version="1.0" encoding="utf-8"?>
<!-- Svg Vector Icons : http://www.onlinewebfonts.com/icon -->
<!DOCTYPE svg PUBLIC "-//W3C//DTD SVG 1.1//EN" "http://www.w3.org/Graphics/SVG/1.1/DTD/svg11.dtd">
<svg version="1.1" xmlns="http://www.w3.org/2000/svg" xmlns:xlink="http://www.w3.org/1999/xlink" x="0px" y="0px" viewBox="0 0 1000 1000" enable-background="new 0 0 1000 1000" xml:space="preserve">
<metadata> Svg Vector Icons : http://www.onlinewebfonts.com/icon </metadata>
<g><g><g><path d="M551,358.2c8.8-21.2,14.7-45.8,16-71.5c1.9-25.8-1.6-52.7-9.4-78.9c-8-26-20.3-51.4-37.5-73.1c-16.7-21.9-37.9-40.3-60.1-52.3c-22.3-12.1-45.3-17.3-61.4-16.8c-7.8-0.3-14.8,1.9-18.8,3c-4.1,1.4-6.3,2.1-6.3,2.1s0.5,2.2,1.4,6.4c0.9,3.9,1,10.7,1.6,16.9c0.6,13.7-0.8,30.2-2.4,48.3c-3,35.5-2.2,77.1,10.7,118c6.4,20.4,14.7,40.7,25.9,59.5c10.7,18.8,23.7,36.3,36.9,51.3c12,13.3,38.9,43.9,48.7,51.7c2.5-17.4,4.6-35.2,5-53.3c1-12.7,0.2-25.4-0.1-37.9c-0.2-12.6-2.5-24.7-3.5-36.5c-2.1-11.7-5-22.9-7.3-33.6c-3.7-10.3-7.3-20-10.5-29c-4.6-8.4-8.8-16.2-12.5-23c-3.2-7.2-8.6-11.8-11.7-16.4c-7-8.8-11.1-13.9-11.1-13.9s4.4,4.7,12,13c3.5,4.4,9.3,8.7,13.1,15.7c4.3,6.7,9.1,14.2,14.4,22.5c4,9,8.3,18.6,13,28.9c3.2,10.7,6.9,22,10,33.9c2,12.1,5.2,24.5,6.4,37.3c1.1,12.8,3,25.9,2.9,39c0.5,14.9,0.3,29.6-0.4,44.1c1.2-1.3,2.5-2.3,3.6-3.7C530.7,397.3,541.9,379.4,551,358.2z"/><path d="M434.4,466.8c2,3.2,3.6,6.3,5.4,9.4c-98.3,18.8-178,89.6-209.5,182.7l6.5,0.8c8.1,0.1,20.5,2,41.7,5.7c0.4-6.3,2.6-12.4,6.6-17.5c15.6-20.6,38.3-31.5,65.7-31.5c41.1,0.1,84.6,1.4,128.7,14.7c23.2,7,46.9,5.7,71-4c69.4-27.8,130.3-25.2,179.5,6.9c6.1,4,12.4,8.2,18.8,12.5c-35-89.3-115.1-155.8-212.2-171.7c2.7-4.6,5.2-9.3,8.1-14c2.7-4.4,8.2-16.1,7.4-18.9c-0.3-1.7-0.2-3.4-0.3-5.1c-9.9,12.4-18.8,24.9-26.6,36.8c-4.8-0.6-9.7-0.8-14.7-1.1c2.6-18.5,4.6-38.4,5.6-59.2c-1.5,1.6-2.9,3.3-4.7,4.8c-3.1,2.1-7.9,18.5-9,25.3c-1.7,9.8-3.6,19.1-5.6,28.1c-1.7,0-3.3-0.4-5-0.4c-14.1,0-28,1.2-41.6,3.2c-6.9-10.3-14.4-20.8-22.8-31.5c-0.1,1.7,0,3.4-0.3,5.1C426.2,450.7,431.6,462.4,434.4,466.8z"/><path d="M594.5,390.8c7.1-6.7,15.1-12.2,22.2-18.1c7.7-5.3,15.4-9.8,22.6-14.4c7.7-3.6,15-6.9,21.8-10c7.1-2.1,13.6-4,19.4-5.7c5.6-2.1,11.1-1.7,15.3-2.4c8.5-0.9,13.4-1.4,13.4-1.4s-4.8,0.9-13.2,2.4c-4.1,1.1-9.4,1-14.8,3.5c-5.5,2-11.8,4.4-18.6,6.9c-6.3,3.5-13.2,7.3-20.4,11.3c-6.7,4.9-13.9,9.9-20.9,15.5c-6.6,6.2-13.9,12-20.2,19.1c-6.4,7-13.2,13.8-18.9,21.5c-8.8,10.5-16.4,21.8-23.7,32.9c9.5,0.5,40.1-3.6,53.5-5.2c15-2,31-5.4,46.6-10.8c15.7-5.1,30.6-12.6,44.4-20.9c27.8-16.9,48.9-40.2,64.9-61.9c8.1-11.1,15.5-21.2,22.6-28.7c3.4-3.2,6.9-7,9.3-8.8c2.6-1.9,3.9-2.9,3.9-2.9s-0.9-1.6-2.5-4.4c-1.8-2.6-4.6-7.3-9.3-11.1c-8.9-8.3-24.6-16.8-43.3-21c-18.7-4.2-39.9-4.3-60.3-0.1c-20.6,3.8-40.3,12.1-57.8,23c-17.4,11.1-32.8,24.6-44.6,40.3c-12,15.3-20.9,32.2-26.5,48.7c-5.4,16.6-7.9,32.3-7.8,44.9c-0.1,1.3,0.2,2.6,0.3,3.9c6.9-8.6,14-17.1,21.8-25.3C579.8,404.1,587.4,397.6,594.5,390.8z"/><path d="M188.6,330.4c7.1,7.5,14.6,17.6,22.6,28.7c16,21.7,37.1,45,64.9,62c13.8,8.4,28.6,15.9,44.4,20.9c15.5,5.4,31.6,8.9,46.6,10.8c13.4,1.6,44.1,5.7,53.5,5.2c-7.2-11.1-14.9-22.3-23.7-32.9c-5.8-7.8-12.6-14.5-18.9-21.6c-6.4-7-13.7-12.8-20.2-19c-7-5.6-14.3-10.6-20.9-15.5c-7.2-4-14.1-7.8-20.4-11.3c-6.8-2.5-13-4.8-18.6-6.9c-5.4-2.5-10.7-2.4-14.8-3.5c-8.4-1.5-13.2-2.4-13.2-2.4s4.8,0.5,13.3,1.4c4.2,0.8,9.6,0.4,15.3,2.4c5.8,1.7,12.3,3.6,19.4,5.7c6.8,3.1,14.1,6.5,21.8,10c7.1,4.5,14.9,9.1,22.6,14.4c7.1,5.9,15.1,11.3,22.2,18.1c7,6.7,14.6,13.2,21.1,20.7c7.7,8.2,14.9,16.7,21.8,25.3c0-1.3,0.3-2.6,0.2-3.9c0.1-12.6-2.3-28.3-7.8-44.9c-5.6-16.5-14.4-33.4-26.5-48.7c-11.8-15.7-27.2-29.3-44.6-40.3c-17.5-10.8-37.1-19.2-57.8-23c-20.4-4.2-41.7-4.1-60.3,0.1c-18.7,4.2-34.5,12.7-43.4,21c-4.6,3.7-7.5,8.4-9.2,11c-1.6,2.8-2.5,4.4-2.5,4.4s1.4,1,3.9,3C181.8,323.3,185.2,327.1,188.6,330.4z"/><path d="M862.9,788.5C820.5,731,765,688.1,706.5,650c-47.5-30.9-101.5-24.3-151.9-4.1c-30.8,12.3-61.3,13.8-91,4.8c-39.5-11.9-79.3-13.2-119.7-13.3c-17.3-0.1-31.7,6-42,19.5c-5.8,7.6,41.4,39.2,81.8,39.2c-7.5,15-138.1-16.7-155.6-15.4l-98.8-12.7c-35.1-2.9-35.1-16.1-69.6,3.4c-1.2,0.7-2.9,0.7-4.3,0.6c-19.2-1.1-30.1,5-40.8,17.7c-6.2,7.3-5.7,16.4-2.4,24.9c3.5,9,12.3,6.6,19.5,9.5c44.2,17.5,58.5,26.1,118.4,40.9c42.6,10.5,84.2,23.4,126.7,33c17.6,4,35.5,7,51.4,15.9c33.7,19,69.6,24.7,108.1,23c43.7-2,87.5-0.2,131.4-0.5c76.9-0.4,135.3,30.4,174.8,98.2L990,934C936,870.8,912.2,855.5,862.9,788.5z"/></g></g><g></g><g></g><g></g><g></g><g></g><g></g><g></g><g></g><g></g><g></g><g></g><g></g><g></g><g></g><g></g></g>
</svg>